# Blender v2.91.2 OBJ File: ''
# www.blender.org
mtllib Trap.mtl
o ĞšÑƒĞ±
v 0.562632 -2.468043 -1.314243
v 1.000000 -2.468043 -0.739435
v 0.611602 -2.468043 -1.310629
v 0.659955 -2.468043 -1.299832
v 0.707085 -2.468043 -1.281987
v 0.752399 -2.468043 -1.257319
v 0.795326 -2.468043 -1.226139
v 0.835326 -2.468043 -1.188838
v 0.871898 -2.468043 -1.145886
v 0.904580 -2.468043 -1.097822
v 0.932962 -2.468043 -1.045251
v 0.956687 -2.468043 -0.988835
v 0.975456 -2.468043 -0.929282
v 0.989034 -2.468043 -0.867342
v 0.997250 -2.468043 -0.803793
v 1.000000 2.468043 -0.739435
v 0.562632 2.468043 -1.314243
v 0.997250 2.468043 -0.803793
v 0.989034 2.468043 -0.867342
v 0.975456 2.468043 -0.929282
v 0.956687 2.468043 -0.988835
v 0.932962 2.468043 -1.045251
v 0.904580 2.468043 -1.097822
v 0.871898 2.468043 -1.145886
v 0.835326 2.468043 -1.188838
v 0.795326 2.468043 -1.226139
v 0.752399 2.468043 -1.257319
v 0.707085 2.468043 -1.281987
v 0.659955 2.468043 -1.299832
v 0.611602 2.468043 -1.310629
v 1.000000 -2.468043 0.666064
v 0.506804 -2.468043 1.314243
v 0.992507 -2.468043 0.778619
v 0.970257 -2.468043 0.887754
v 0.933924 -2.468043 0.990153
v 0.884614 -2.468043 1.082705
v 0.823824 -2.468043 1.162598
v 0.753402 -2.468043 1.227404
v 0.675487 -2.468043 1.275153
v 0.592447 -2.468043 1.304396
v 0.506804 2.468043 1.314243
v 1.000000 2.468043 0.666064
v 0.592447 2.468043 1.304396
v 0.675487 2.468043 1.275153
v 0.753402 2.468043 1.227404
v 0.823824 2.468043 1.162598
v 0.884614 2.468043 1.082705
v 0.933924 2.468043 0.990153
v 0.970257 2.468043 0.887754
v 0.992507 2.468043 0.778619
v -0.560672 -2.468043 1.314243
v -1.000000 -2.468043 0.736859
v -0.629398 -2.468043 1.307135
v -0.696432 -2.468043 1.285984
v -0.760123 -2.468043 1.251312
v -0.818902 -2.468043 1.203973
v -0.871324 -2.468043 1.145131
v -0.916096 -2.468043 1.076237
v -0.952116 -2.468043 0.998986
v -0.978498 -2.468043 0.915281
v -0.994591 -2.468043 0.827182
v -1.000000 2.468043 0.736859
v -0.560672 2.468043 1.314243
v -0.994591 2.468043 0.827182
v -0.978498 2.468043 0.915281
v -0.952116 2.468043 0.998986
v -0.916096 2.468043 1.076237
v -0.871324 2.468043 1.145131
v -0.818902 2.468043 1.203973
v -0.760123 2.468043 1.251312
v -0.696432 2.468043 1.285984
v -0.629398 2.468043 1.307135
v -1.000000 -2.468043 -0.707743
v -0.538518 -2.468043 -1.314243
v -0.991133 -2.468043 -0.826066
v -0.964872 -2.468043 -0.939841
v -0.922226 -2.468043 -1.044697
v -0.864835 -2.468043 -1.136604
v -0.794904 -2.468043 -1.212029
v -0.715119 -2.468043 -1.268076
v -0.628549 -2.468043 -1.302589
v -0.538518 2.468043 -1.314243
v -1.000000 2.468043 -0.707743
v -0.628549 2.468043 -1.302589
v -0.715119 2.468043 -1.268076
v -0.794904 2.468043 -1.212029
v -0.864835 2.468043 -1.136604
v -0.922226 2.468043 -1.044697
v -0.964872 2.468043 -0.939841
v -0.991133 2.468043 -0.826066
vt 0.375000 0.811650
vt 0.625000 0.811650
vt 0.625000 0.945084
vt 0.375000 0.945084
vt 0.625000 0.554671
vt 0.625115 0.548550
vt 0.625457 0.542506
vt 0.626023 0.536614
vt 0.626805 0.530950
vt 0.627793 0.525584
vt 0.628976 0.520584
vt 0.630338 0.505338
vt 0.631861 0.490253
vt 0.633528 0.485737
vt 0.635317 0.481171
vt 0.637205 0.476613
vt 0.639169 0.472120
vt 0.641183 0.467748
vt 0.679671 0.500000
vt 0.817315 0.500000
vt 0.692851 0.364657
vt 0.696446 0.358538
vt 0.699756 0.353668
vt 0.702663 0.338969
vt 0.705062 0.324790
vt 0.706853 0.321465
vt 0.707959 0.317857
vt 0.875000 0.557685
vt 0.875000 0.695084
vt 0.874315 0.703676
vt 0.872280 0.712058
vt 0.868949 0.720024
vt 0.864415 0.727375
vt 0.858804 0.733930
vt 0.852265 0.739524
vt 0.844949 0.744023
vt 0.837021 0.747317
vt 0.828665 0.749325
vt 0.820084 0.750000
vt 0.686650 0.750000
vt 0.641979 0.783648
vt 0.638512 0.775794
vt 0.635256 0.767777
vt 0.632313 0.759846
vt 0.629779 0.727949
vt 0.627732 0.719153
vt 0.626228 0.709424
vt 0.625309 0.699053
vt 0.625000 0.688350
vt 0.125000 0.557685
vt 0.292041 0.317857
vt 0.293147 0.321465
vt 0.294938 0.324790
vt 0.297337 0.338969
vt 0.300244 0.353668
vt 0.303554 0.358538
vt 0.307149 0.364657
vt 0.182685 0.500000
vt 0.320329 0.500000
vt 0.358817 0.467748
vt 0.360831 0.472120
vt 0.362795 0.476613
vt 0.364683 0.481171
vt 0.366472 0.485737
vt 0.368139 0.490253
vt 0.369662 0.505338
vt 0.371024 0.520584
vt 0.372207 0.525584
vt 0.373195 0.530950
vt 0.373977 0.536614
vt 0.374543 0.542506
vt 0.374885 0.548550
vt 0.375000 0.554671
vt 0.375000 0.688350
vt 0.374691 0.699053
vt 0.373772 0.709424
vt 0.372268 0.719153
vt 0.370221 0.727949
vt 0.367687 0.759846
vt 0.364744 0.767777
vt 0.361488 0.775794
vt 0.358021 0.783648
vt 0.313350 0.750000
vt 0.179916 0.750000
vt 0.171334 0.749325
vt 0.162979 0.747317
vt 0.155051 0.744023
vt 0.147735 0.739524
vt 0.141196 0.733930
vt 0.135585 0.727376
vt 0.131051 0.720024
vt 0.127720 0.712059
vt 0.125685 0.703676
vt 0.125000 0.695084
vt 0.375000 0.445329
vt 0.625000 0.445329
vt 0.625000 0.953675
vt 0.375000 0.953675
vt 0.625000 0.962054
vt 0.375000 0.962054
vt 0.625000 0.970015
vt 0.375000 0.970015
vt 0.625000 0.977363
vt 0.375000 0.977363
vt 0.625000 1.000000
vt 0.375000 1.000000
vt 0.375000 0.000000
vt 0.625000 0.000000
vt 0.625000 0.022637
vt 0.375000 0.022637
vt 0.625000 0.029985
vt 0.375000 0.029985
vt 0.625000 0.037946
vt 0.375000 0.037946
vt 0.625000 0.046325
vt 0.375000 0.046325
vt 0.625000 0.054916
vt 0.375000 0.054916
vt 0.625000 0.192315
vt 0.375000 0.192315
vt 0.625000 0.307685
vt 0.375000 0.307685
vn 0.0000 0.0000 1.0000
vn 0.0000 1.0000 -0.0000
vn 0.0000 -1.0000 0.0000
vn 0.9991 0.0000 -0.0427
vn 0.9917 0.0000 -0.1282
vn 0.9768 0.0000 -0.2141
vn 0.9538 0.0000 -0.3006
vn 0.9218 0.0000 -0.3876
vn 0.8799 0.0000 -0.4751
vn 0.8269 0.0000 -0.5623
vn 0.7614 0.0000 -0.6483
vn 0.6820 0.0000 -0.7314
vn 0.5877 0.0000 -0.8091
vn 0.4781 0.0000 -0.8783
vn 0.3541 0.0000 -0.9352
vn 0.2179 0.0000 -0.9760
vn 0.0736 0.0000 -0.9973
vn 1.0000 0.0000 0.0000
vn 0.1142 0.0000 0.9935
vn 0.3322 0.0000 0.9432
vn 0.5225 0.0000 0.8526
vn 0.6772 0.0000 0.7358
vn 0.7958 0.0000 0.6055
vn 0.8826 0.0000 0.4702
vn 0.9424 0.0000 0.3344
vn 0.9798 0.0000 0.1998
vn 0.9978 0.0000 0.0664
vn -0.1029 0.0000 0.9947
vn -0.3009 0.0000 0.9537
vn -0.4781 0.0000 0.8783
vn -0.6272 0.0000 0.7788
vn -0.7467 0.0000 0.6652
vn -0.8385 0.0000 0.5449
vn -0.9063 0.0000 0.4226
vn -0.9538 0.0000 0.3006
vn -0.9837 0.0000 0.1797
vn -0.9982 0.0000 0.0598
vn -1.0000 0.0000 0.0000
vn -0.1284 0.0000 -0.9917
vn -0.3703 0.0000 -0.9289
vn -0.5748 0.0000 -0.8183
vn -0.7333 0.0000 -0.6799
vn -0.8482 0.0000 -0.5297
vn -0.9263 0.0000 -0.3767
vn -0.9744 0.0000 -0.2249
vn -0.9972 0.0000 -0.0747
vn 0.0000 0.0000 -1.0000
usemtl None
s off
f 32/1/1 41/2/1 63/3/1 51/4/1
f 16/5/2 18/6/2 19/7/2 20/8/2 21/9/2 22/10/2 23/11/2 24/12/2 25/13/2 26/14/2 27/15/2 28/16/2 29/17/2 30/18/2 17/19/2 82/20/2 84/21/2 85/22/2 86/23/2 87/24/2 88/25/2 89/26/2 90/27/2 83/28/2 62/29/2 64/30/2 65/31/2 66/32/2 67/33/2 68/34/2 69/35/2 70/36/2 71/37/2 72/38/2 63/39/2 41/40/2 43/41/2 44/42/2 45/43/2 46/44/2 47/45/2 48/46/2 49/47/2 50/48/2 42/49/2
f 73/50/3 75/51/3 76/52/3 77/53/3 78/54/3 79/55/3 80/56/3 81/57/3 74/58/3 1/59/3 3/60/3 4/61/3 5/62/3 6/63/3 7/64/3 8/65/3 9/66/3 10/67/3 11/68/3 12/69/3 13/70/3 14/71/3 15/72/3 2/73/3 31/74/3 33/75/3 34/76/3 35/77/3 36/78/3 37/79/3 38/80/3 39/81/3 40/82/3 32/83/3 51/84/3 53/85/3 54/86/3 55/87/3 56/88/3 57/89/3 58/90/3 59/91/3 60/92/3 61/93/3 52/94/3
f 16/5/4 2/73/4 15/72/4 18/6/4
f 18/6/5 15/72/5 14/71/5 19/7/5
f 19/7/6 14/71/6 13/70/6 20/8/6
f 20/8/7 13/70/7 12/69/7 21/9/7
f 21/9/8 12/69/8 11/68/8 22/10/8
f 22/10/9 11/68/9 10/67/9 23/11/9
f 23/11/10 10/67/10 9/66/10 24/12/10
f 24/12/11 9/66/11 8/65/11 25/13/11
f 25/13/12 8/65/12 7/64/12 26/14/12
f 26/14/13 7/64/13 6/63/13 27/15/13
f 27/15/14 6/63/14 5/62/14 28/16/14
f 28/16/15 5/62/15 4/61/15 29/17/15
f 29/17/16 4/61/16 3/60/16 30/18/16
f 30/18/17 3/60/17 1/95/17 17/96/17
f 2/73/18 16/5/18 42/49/18 31/74/18
f 41/2/19 32/1/19 40/82/19 43/41/19
f 43/41/20 40/82/20 39/81/20 44/42/20
f 44/42/21 39/81/21 38/80/21 45/43/21
f 45/43/22 38/80/22 37/79/22 46/44/22
f 46/44/23 37/79/23 36/78/23 47/45/23
f 47/45/24 36/78/24 35/77/24 48/46/24
f 48/46/25 35/77/25 34/76/25 49/47/25
f 49/47/26 34/76/26 33/75/26 50/48/26
f 50/48/27 33/75/27 31/74/27 42/49/27
f 51/4/28 63/3/28 72/97/28 53/98/28
f 53/98/29 72/97/29 71/99/29 54/100/29
f 54/100/30 71/99/30 70/101/30 55/102/30
f 55/102/31 70/101/31 69/103/31 56/104/31
f 56/104/32 69/103/32 68/105/32 57/106/32
f 57/107/33 68/108/33 67/109/33 58/110/33
f 58/110/34 67/109/34 66/111/34 59/112/34
f 59/112/35 66/111/35 65/113/35 60/114/35
f 60/114/36 65/113/36 64/115/36 61/116/36
f 61/116/37 64/115/37 62/117/37 52/118/37
f 52/118/38 62/117/38 83/119/38 73/120/38
f 82/121/39 74/122/39 81/57/39 84/21/39
f 84/21/40 81/57/40 80/56/40 85/22/40
f 85/22/41 80/56/41 79/55/41 86/23/41
f 86/23/42 79/55/42 78/54/42 87/24/42
f 87/24/43 78/54/43 77/53/43 88/25/43
f 88/25/44 77/53/44 76/52/44 89/26/44
f 89/26/45 76/52/45 75/51/45 90/27/45
f 90/27/46 75/51/46 73/120/46 83/119/46
f 74/122/47 82/121/47 17/96/47 1/95/47
